<?xml version="1.0" encoding="UTF-8"?>
<svg width="96px" height="72px" viewBox="0 0 96 72" version="1.1" xmlns="http://www.w3.org/2000/svg" xmlns:xlink="http://www.w3.org/1999/xlink">
    <!-- Generator: Sketch 48.1 (47250) - http://www.bohemiancoding.com/sketch -->
    <title>white</title>
    <desc>Created with Sketch.</desc>
    <defs></defs>
    <g id="Page-1" stroke="none" stroke-width="1" fill="none" fill-rule="evenodd">
        <g id="white" fill="#FFFFFF" fill-rule="nonzero">
            <path d="M5,6 C3.8822,5.9999 3.0246,7.09909964 3,7.99999934 L3,59.0000026 C3.0001,60.0471023 3.9528,60.999902 5,61.000002 L37.9688,61.000002 C40.3176,61.000002 42.3798,61.3196019 43.7188,62.0000016 C45.0574,62.6803014 45.7798,63.4992011 46.0312,65.2812006 C46.1953,66.1956003 47.071,67 48,67 C48.929,67 49.8047,66.1956003 49.9688,65.2812006 C50.2204,63.4992011 50.9427,62.6803014 52.2812,62.0000016 C53.62,61.3196019 55.6824,61.000002 58.0312,61.000002 L91,61.000002 C92.0472,60.999902 92.9999,60.0471023 93,59.0000026 L93,7.99999934 C92.9999,6.95279969 92.0472,6.0001 91,6 L58.0312,6 C54.9558,6 52.0516,6.71209977 49.7812,8.37499922 C49.1127,8.86469906 48.5162,9.46589886 48,10.1249986 C47.4838,9.46589886 46.8872,8.86469906 46.2188,8.37499922 C43.9484,6.71209977 41.0442,6 37.9688,6 L5,6 Z M6.9999996,9.99999869 L37.9688,9.99999869 C40.3996,9.99999869 42.5062,10.5911485 43.875,11.5937482 C45.2438,12.5964478 46,13.8960974 46,15.9999967 L46,58.7187027 C43.4968,57.3935031 40.367,57.0106033 37.9688,57.0000033 L6.9999996,57.0000033 L6.9999996,9.99999869 Z M58.0312,9.99999869 L89,9.99999869 L89,57.0000033 L58.0312,57.0000033 C54.9974,57.1413032 52.3112,57.5312031 50,58.7187027 L50,15.9999967 C50,13.8960974 50.7562,12.5964478 52.125,11.5937482 C53.4938,10.5911485 55.6004,9.99999869 58.0312,9.99999869 Z M14,16.9999964 C12.8955,16.9999964 12,17.8953961 12,18.9999957 C12,20.1045954 12.8955,20.9999951 14,20.9999951 L39,20.9999951 C40.1046,20.9999951 41,20.1045954 41,18.9999957 C41,17.8953961 40.1046,16.9999964 39,16.9999964 L14,16.9999964 Z M57,16.9999964 C55.8955,16.9999964 55,17.8953961 55,18.9999957 C55,20.1045954 55.8955,20.9999951 57,20.9999951 L82,20.9999951 C83.1046,20.9999951 84,20.1045954 84,18.9999957 C84,17.8953961 83.1046,16.9999964 82,16.9999964 L57,16.9999964 Z M14,25.9999934 C12.8955,25.9999934 12,26.8953931 12,27.9999928 C12,29.1045924 12.8955,29.9999921 14,29.9999921 L39,29.9999921 C40.1046,29.9999921 41,29.1045924 41,27.9999928 C41,26.8953931 40.1046,25.9999934 39,25.9999934 L14,25.9999934 Z M57,25.9999934 C55.8955,25.9999934 55,26.8953931 55,27.9999928 C55,29.1045924 55.8955,29.9999921 57,29.9999921 L82,29.9999921 C83.1046,29.9999921 84,29.1045924 84,27.9999928 C84,26.8953931 83.1046,25.9999934 82,25.9999934 L57,25.9999934 Z M14,34.9999905 C12.8955,34.9999905 12,35.8953902 12,36.9999898 C12,38.1046095 12.8955,39.0000092 14,39.0000092 L39,39.0000092 C40.1046,39.0000092 41,38.1046095 41,36.9999898 C41,35.8953902 40.1046,34.9999905 39,34.9999905 L14,34.9999905 Z M14,44.9999872 C12.8955,44.9999872 12,45.8953869 12,46.9999866 C12,48.1046062 12.8955,49.0000059 14,49.0000059 L39,49.0000059 C40.1046,49.0000059 41,48.1046062 41,46.9999866 C41,45.8953869 40.1046,44.9999872 39,44.9999872 L14,44.9999872 Z M57,34.9999905 C55.8955,34.9999905 55,35.8953902 55,36.9999898 C55,38.1046095 55.8955,39.0000092 57,39.0000092 L82,39.0000092 C83.1046,39.0000092 84,38.1046095 84,36.9999898 C84,35.8953902 83.1046,34.9999905 82,34.9999905 L57,34.9999905 Z M57,44.9999872 C55.8955,44.9999872 55,45.8953869 55,46.9999866 C55,48.1046062 55.8955,49.0000059 57,49.0000059 L82,49.0000059 C83.1046,49.0000059 84,48.1046062 84,46.9999866 C84,45.8953869 83.1046,44.9999872 82,44.9999872 L57,44.9999872 Z" id="Shape-Copy"></path>
        </g>
    </g>
</svg>